REM DIRINDEX 1\2\6,1\2\7,1\2\8,1\2\9,1\3\10,1\3\11,1\4\12,1\4\13,1\4\14,1\5\15,1\5\16,1\5\17
REM DIRNAME folder01,folder02,folder03,folder04,folder05,folder06,folder07,folder08,folder09,folder10,folder11,folder12,folder13,folder14,folder15,folder16,folder17
TITLE ""
FILE "1900_2_sec08_0732_0748.mp3" MP3
  TRACK 01 AUDIO
    TITLE "0:"
    INDEX 01 00:00:00
  TRACK 02 AUDIO
    TITLE "13:cjc020_3579"
    INDEX 01 00:00:17
  TRACK 03 AUDIO
    TITLE "0:"
    INDEX 01 00:01:36
  TRACK 04 AUDIO
    TITLE "14:cjc020_3580"
    INDEX 01 00:01:38
  TRACK 05 AUDIO
    TITLE "0:"
    INDEX 01 00:04:07
  TRACK 06 AUDIO
    TITLE "13:cjc020_3581"
    INDEX 01 00:04:58
  TRACK 07 AUDIO
    TITLE "0:"
    INDEX 01 00:05:65
  TRACK 08 AUDIO
    TITLE "14:cjc020_3582"
    INDEX 01 00:05:67
  TRACK 09 AUDIO
    TITLE "0:"
    INDEX 01 00:08:58
  TRACK 10 AUDIO
    TITLE "13:cjc020_3583"
    INDEX 01 00:09:40
  TRACK 11 AUDIO
    TITLE "0:"
    INDEX 01 00:10:55
  TRACK 12 AUDIO
    TITLE "14:cjc020_3584"
    INDEX 01 00:10:57
  TRACK 13 AUDIO
    TITLE "0:"
    INDEX 01 00:11:74
  TRACK 14 AUDIO
    TITLE "13:cjc020_3585"
    INDEX 01 00:12:50
  TRACK 15 AUDIO
    TITLE "0:"
    INDEX 01 00:13:55
  TRACK 16 AUDIO
    TITLE "14:cjc020_3586"
    INDEX 01 00:13:63
  TRACK 17 AUDIO
    TITLE "0:"
    INDEX 01 00:15:05
  TRACK 18 AUDIO
    TITLE "13:cjc020_3587"
    INDEX 01 00:15:60
  TRACK 19 AUDIO
    TITLE "0:"
    INDEX 01 00:16:61
  TRACK 20 AUDIO
    TITLE "14:cjc020_3588"
    INDEX 01 00:16:63
  TRACK 21 AUDIO
    TITLE "0:"
    INDEX 01 00:20:32
  TRACK 22 AUDIO
    TITLE "13:cjc020_3589"
    INDEX 01 00:21:15
  TRACK 23 AUDIO
    TITLE "0:"
    INDEX 01 00:22:11
  TRACK 24 AUDIO
    TITLE "14:cjc020_3590"
    INDEX 01 00:22:13
  TRACK 25 AUDIO
    TITLE "0:"
    INDEX 01 00:25:68
  TRACK 26 AUDIO
    TITLE "13:cjc020_3591"
    INDEX 01 00:26:48
  TRACK 27 AUDIO
    TITLE "0:"
    INDEX 01 00:27:59
  TRACK 28 AUDIO
    TITLE "14:cjc020_3592"
    INDEX 01 00:27:61
  TRACK 29 AUDIO
    TITLE "0:"
    INDEX 01 00:30:20
  TRACK 30 AUDIO
    TITLE "13:cjc020_3593"
    INDEX 01 00:31:00
  TRACK 31 AUDIO
    TITLE "0:"
    INDEX 01 00:32:35
  TRACK 32 AUDIO
    TITLE "14:cjc020_3594"
    INDEX 01 00:32:39
  TRACK 33 AUDIO
    TITLE "0:"
    INDEX 01 00:35:35
  TRACK 34 AUDIO
    TITLE "13:cjc020_3595"
    INDEX 01 00:36:15
  TRACK 35 AUDIO
    TITLE "0:"
    INDEX 01 00:37:44
  TRACK 36 AUDIO
    TITLE "14:cjc020_3596"
    INDEX 01 00:37:46
  TRACK 37 AUDIO
    TITLE "0:"
    INDEX 01 00:38:65
  TRACK 38 AUDIO
    TITLE "12:cjc020_3597"
    INDEX 01 00:40:38
  TRACK 39 AUDIO
    TITLE "0:"
    INDEX 01 00:41:63
  TRACK 40 AUDIO
    TITLE "13:cjc020_3598"
    INDEX 01 00:42:66
  TRACK 41 AUDIO
    TITLE "0:"
    INDEX 01 00:43:50
  TRACK 42 AUDIO
    TITLE "14:cjc020_3599"
    INDEX 01 00:43:66
  TRACK 43 AUDIO
    TITLE "0:"
    INDEX 01 00:47:64
  TRACK 44 AUDIO
    TITLE "13:cjc020_3600"
    INDEX 01 00:48:44
  TRACK 45 AUDIO
    TITLE "0:"
    INDEX 01 00:49:69
  TRACK 46 AUDIO
    TITLE "14:cjc020_3601"
    INDEX 01 00:49:70
  TRACK 47 AUDIO
    TITLE "0:"
    INDEX 01 00:51:69
  TRACK 48 AUDIO
    TITLE "13:cjc020_3602"
    INDEX 01 00:52:51
  TRACK 49 AUDIO
    TITLE "0:"
    INDEX 01 00:54:23
  TRACK 50 AUDIO
    TITLE "14:cjc020_3603"
    INDEX 01 00:54:25
  TRACK 51 AUDIO
    TITLE "0:"
    INDEX 01 00:55:44
  TRACK 52 AUDIO
    TITLE "13:cjc020_3604"
    INDEX 01 00:56:24
  TRACK 53 AUDIO
    TITLE "0:"
    INDEX 01 00:57:29
  TRACK 54 AUDIO
    TITLE "14:cjc020_3605"
    INDEX 01 00:57:31
  TRACK 55 AUDIO
    TITLE "0:"
    INDEX 01 01:00:41
  TRACK 56 AUDIO
    TITLE "13:cjc020_3606"
    INDEX 01 01:01:25
  TRACK 57 AUDIO
    TITLE "0:"
    INDEX 01 01:02:44
  TRACK 58 AUDIO
    TITLE "14:cjc020_3607"
    INDEX 01 01:02:48
  TRACK 59 AUDIO
    TITLE "0:"
    INDEX 01 01:03:59
  TRACK 60 AUDIO
    TITLE "13:cjc020_3608"
    INDEX 01 01:04:45
  TRACK 61 AUDIO
    TITLE "0:"
    INDEX 01 01:05:40
  TRACK 62 AUDIO
    TITLE "14:cjc020_3609"
    INDEX 01 01:05:42
  TRACK 63 AUDIO
    TITLE "0:"
    INDEX 01 01:07:41
  TRACK 64 AUDIO
    TITLE "13:cjc020_3610"
    INDEX 01 01:08:23
  TRACK 65 AUDIO
    TITLE "0:"
    INDEX 01 01:09:22
  TRACK 66 AUDIO
    TITLE "14:cjc020_3611"
    INDEX 01 01:09:24
  TRACK 67 AUDIO
    TITLE "0:"
    INDEX 01 01:13:32
  TRACK 68 AUDIO
    TITLE "13:cjc020_3612"
    INDEX 01 01:14:14
  TRACK 69 AUDIO
    TITLE "0:"
    INDEX 01 01:15:13
  TRACK 70 AUDIO
    TITLE "14:cjc020_3613"
    INDEX 01 01:15:21
  TRACK 71 AUDIO
    TITLE "0:"
    INDEX 01 01:19:50
